# xmcd
#
# Track frame offsets: 
#        150
#        11364
#        23043
#        36737
#        50615
#        60776
#        75722
#        95422
#        110046
#        122338
#        135140
#        150087
#        165301
#        179994
#        190198
#        200712
#        211666
#        228415
#        241031
#        250007
#
# Disc length: 3497 seconds
#
# Revision: 0
# Processed by: cddbd v1.5.2PL0 Copyright (c) Steve Scherf et al.
# Submitted via: ExactAudioCopy v0.99pb4
#
DISCID=f40da714
DTITLE=Various Artist - 100 Instrumentale Klassiekers - Disk 5
DYEAR=2008
DGENRE=Instrumental
TTITLE0=Hot Butter - Pop Corn
TTITLE1=Electronic System - Coconut
TTITLE2=Yvan Guilini - Wintermemories
TTITLE3=Johnny Pearson - Sleepy Shores
TTITLE4=Bert Kaempfert And His Orchestra - Living It Up
TTITLE5=Johnny Gregory - Music Box Dancer
TTITLE6=Gheorghe Zamfir and James Last - Der Einsamer Hirte
TTITLE7=Vladimir Cosma - David's Song
TTITLE8=Les Baxter - April In Portugal
TTITLE9=Malando And His Tango Orchestra - Hernando's Hideaway
TTITLE10=Sidney Bechet - Petite Fleur
TTITLE11=Glenn Miller - Moonlight Serenade
TTITLE12=Booker T and The MG's - Time Is Tight
TTITLE13=Duane Eddy - Rebel Rouser
TTITLE14=Johnny and The Hurricanes - Reveille Rock
TTITLE15=Mitch Miller - March From The River Kwai
TTITLE16=André Rieu - Strauss Party
TTITLE17=Dimitri Dourakine and His Orchestra - Casatschok
TTITLE18=James Last - Happy Luxemburg
TTITLE19=Kai Warner - Dancing On The Shore
EXTD=
EXTT0=
EXTT1=
EXTT2=
EXTT3=
EXTT4=
EXTT5=
EXTT6=
EXTT7=
EXTT8=
EXTT9=
EXTT10=
EXTT11=
EXTT12=
EXTT13=
EXTT14=
EXTT15=
EXTT16=
EXTT17=
EXTT18=
EXTT19=
PLAYORDER=
